<svg width="100" height="100" viewBox="0 0 100 100" fill="none" xmlns="http://www.w3.org/2000/svg">
<path d="M82.4547 36.2336C82.5831 36.3866 82.7434 36.5095 82.9244 36.5939C83.1054 36.6782 83.3027 36.7219 83.5023 36.7219H89.7578C89.9575 36.7219 90.1548 36.6782 90.3358 36.5939C90.5168 36.5095 90.6771 36.3866 90.8055 36.2336L93.4289 33.1086C93.6365 32.8619 93.7502 32.5498 93.75 32.2273V24.0242H98.6344C98.9968 24.0238 99.3443 23.8795 99.6004 23.623C99.8565 23.3664 100 23.0187 100 22.6563V17.9688C100 17.6062 99.856 17.2584 99.5996 17.002C99.3432 16.7456 98.9954 16.6016 98.6328 16.6016H93.75V8.39844C93.7501 8.07702 93.637 7.76583 93.4305 7.51953L90.807 4.39453C90.6785 4.24137 90.5179 4.11827 90.3366 4.0339C90.1553 3.94954 89.9578 3.90596 89.7578 3.90625H83.5023C83.3027 3.90619 83.1054 3.94988 82.9244 4.03423C82.7434 4.11859 82.5831 4.24157 82.4547 4.39453L79.8312 7.51953C79.6247 7.76583 79.5116 8.07702 79.5117 8.39844V16.6016H20.4891V8.39844C20.4892 8.07702 20.376 7.76583 20.1695 7.51953L17.5461 4.39453C17.4176 4.24147 17.2572 4.11843 17.0761 4.03407C16.8949 3.94971 16.6975 3.90608 16.4977 3.90625H10.2422C10.0425 3.90619 9.84522 3.94988 9.66422 4.03423C9.48323 4.11859 9.32291 4.24157 9.19453 4.39453L6.5711 7.51953C6.36281 7.76705 6.24903 8.08041 6.25 8.40391V16.607H1.36719C1.00553 16.607 0.658611 16.7503 0.40237 17.0055C0.14613 17.2608 0.00144863 17.6071 2.00911e-06 17.9688V22.6563C2.00911e-06 23.0189 0.144045 23.3666 0.400442 23.623C0.656839 23.8794 1.00459 24.0234 1.36719 24.0234H6.25V32.2266C6.24989 32.548 6.36302 32.8592 6.56953 33.1055L9.19297 36.2305C9.32151 36.3836 9.48208 36.5067 9.66337 36.5911C9.84465 36.6755 10.0422 36.719 10.2422 36.7188H16.4977C16.6973 36.7188 16.8946 36.6751 17.0756 36.5908C17.2566 36.5064 17.4169 36.3834 17.5453 36.2305L17.7547 35.9813V85.7852H4.49219C3.30063 85.7864 2.15827 86.2605 1.316 87.1034C0.473731 87.9462 0.000415387 89.0889 2.00911e-06 90.2805V94.7242C-0.000306115 94.904 0.0348299 95.082 0.1034 95.2481C0.171969 95.4143 0.272627 95.5653 0.399612 95.6925C0.526598 95.8197 0.67742 95.9206 0.843448 95.9895C1.00948 96.0583 1.18745 96.0938 1.36719 96.0938H98.6328C98.9954 96.0938 99.3432 95.9497 99.5996 95.6933C99.856 95.4369 100 95.0892 100 94.7266V90.2836C99.9988 89.0926 99.5251 87.9507 98.6829 87.1085C97.8407 86.2663 96.6988 85.7926 95.5078 85.7914H82.2453V35.9844L82.4547 36.2336ZM97.2656 19.3391V21.2922H93.75V19.3391H97.2656ZM82.2453 8.90156L84.1406 6.64063H89.1203L91.0148 8.89844V31.7297L89.1203 33.9875H84.1406L82.2461 31.7297L82.2453 8.90156ZM79.5109 19.3391V21.2922H20.4891V19.3391H79.5109ZM57.7867 85.7883V77.2367H67.2852C67.6478 77.2367 67.9955 77.0927 68.2519 76.8363C68.5083 76.5799 68.6523 76.2321 68.6523 75.8695V71.9531C68.65 70.4367 68.0804 68.9761 67.0555 67.8585C66.0306 66.741 64.6246 66.0473 63.1141 65.9141V43.9844C63.112 42.0196 62.3305 40.136 60.9411 38.7469C59.5517 37.3578 57.6679 36.5767 55.7031 36.575H44.2969C42.3322 36.5767 40.4483 37.3578 39.0589 38.7469C37.6695 40.136 36.888 42.0196 36.8859 43.9844V65.9141C35.3754 66.0473 33.9694 66.741 32.9445 67.8585C31.9196 68.9761 31.35 70.4367 31.3477 71.9531V75.8695C31.3477 76.2321 31.4917 76.5799 31.7481 76.8363C32.0045 77.0927 32.3522 77.2367 32.7148 77.2367H42.2133V85.7875H26.3727V24.0266H73.6273V85.7883H57.7867ZM60.3797 65.8875H39.6203V43.9844C39.6216 42.7446 40.1147 41.556 40.9915 40.6795C41.8683 39.803 43.0571 39.3102 44.2969 39.3094H55.7031C56.9429 39.3102 58.1317 39.803 59.0085 40.6795C59.8853 41.556 60.3784 42.7446 60.3797 43.9844V65.8875ZM37.4109 68.6219H62.5859C63.4693 68.6227 64.3162 68.9739 64.9408 69.5984C65.5655 70.223 65.9169 71.0698 65.918 71.9531V74.5023H34.082V71.9531C34.0831 71.0698 34.4345 70.223 35.0592 69.5984C35.6838 68.9739 36.5307 68.6227 37.4141 68.6219H37.4109ZM44.9453 77.2367H55.0523V85.7875H44.9477L44.9453 77.2367ZM2.73438 21.2922V19.3391H6.25V21.2922H2.73438ZM15.8594 33.9844H10.8805L8.98438 31.7297V8.90156L10.8805 6.64063H15.8594L17.7539 8.89844V31.7297L15.8594 33.9844ZM20.4883 24.0234H23.6375V85.7852H20.4891L20.4883 24.0234ZM97.2648 90.2734V93.3594H2.73438V90.2836C2.735 89.8176 2.92039 89.3708 3.24991 89.0413C3.57943 88.7118 4.02618 88.5264 4.49219 88.5258H95.5078C95.9733 88.5264 96.4196 88.7114 96.749 89.0402C97.0784 89.369 97.2642 89.815 97.2656 90.2805L97.2648 90.2734ZM76.3609 85.7812V24.0266H79.5102V85.7883L76.3609 85.7812Z" fill="#333333"/>
<path d="M46.532 46.4453H53.4687C53.8313 46.4453 54.1791 46.3013 54.4354 46.0449C54.6918 45.7885 54.8359 45.4407 54.8359 45.0781C54.8359 44.7155 54.6918 44.3678 54.4354 44.1114C54.1791 43.855 53.8313 43.7109 53.4687 43.7109H46.532C46.1694 43.7109 45.8216 43.855 45.5652 44.1114C45.3088 44.3678 45.1648 44.7155 45.1648 45.0781C45.1648 45.4407 45.3088 45.7885 45.5652 46.0449C45.8216 46.3013 46.1694 46.4453 46.532 46.4453Z" fill="#333333"/>
<path d="M54.993 50.1719H45.0071C44.6445 50.1719 44.2967 50.3159 44.0403 50.5723C43.7839 50.8287 43.6399 51.1765 43.6399 51.5391C43.6399 51.9017 43.7839 52.2494 44.0403 52.5058C44.2967 52.7622 44.6445 52.9062 45.0071 52.9062H54.993C55.3556 52.9062 55.7034 52.7622 55.9598 52.5058C56.2162 52.2494 56.3602 51.9017 56.3602 51.5391C56.3602 51.1765 56.2162 50.8287 55.9598 50.5723C55.7034 50.3159 55.3556 50.1719 54.993 50.1719Z" fill="#333333"/>
<path d="M53.4679 56.6406H46.532C46.1694 56.6406 45.8216 56.7847 45.5652 57.0411C45.3088 57.2975 45.1648 57.6452 45.1648 58.0078C45.1648 58.3704 45.3088 58.7182 45.5652 58.9746C45.8216 59.231 46.1694 59.375 46.532 59.375H53.4687C53.8313 59.375 54.1791 59.231 54.4354 58.9746C54.6918 58.7182 54.8359 58.3704 54.8359 58.0078C54.8359 57.6452 54.6918 57.2975 54.4354 57.0411C54.1791 56.7847 53.8305 56.6406 53.4679 56.6406Z" fill="#333333"/>
</svg>
